<svg xmlns="http://www.w3.org/2000/svg" version="1.1" xmlns:xlink="http://www.w3.org/1999/xlink" xmlns:svgjs="http://svgjs.dev/svgjs" width="100%" height="100%" viewBox="0 0 1000 600"><rect width="1000" height="600" x="0" y="0" fill="#ffffff"/><g><circle r="166.66666666666666" cx="360.80094401041663" cy="370.72799049077264" fill="#212529" transform="matrix(0.6874208623977824,0,0,0.6874208623977824,-2.6418999858653933,45.1538387056181)"/><path d="M234.04095193174842 317.4452389098798L234.04095193174842 317.4452389098798L236.09028776545773 317.4452389098798Q240.18895943287637 317.4452389098798 240.18895943287637 321.3446695934655L240.18895943287637 321.3446695934655L240.18895943287637 441.2308158654604Q240.18895943287637 442.88166973150396 239.07890252295047 444.1055786321915Q237.9403826153342 445.32948753287894 236.09028776545773 445.32948753287894L236.09028776545773 445.32948753287894L234.04095193174842 445.32948753287894Q232.19085708187194 445.32948753287894 231.08080017194607 444.1055786321915Q229.94228026432978 442.88166973150396 229.94228026432978 441.2308158654604L229.94228026432978 441.2308158654604L229.94228026432978 321.3446695934655Q229.94228026432978 317.4452389098798 234.04095193174842 317.4452389098798ZM189.78099052316531 301.87597917322705L189.78099052316531 301.87597917322705L280.777194139397 301.87597917322705Q282.62728898927344 301.87597917322705 283.73734589919934 303.0998880739145Q284.87586580681557 304.32379697460203 284.87586580681557 305.9746508406456L284.87586580681557 305.9746508406456L284.87586580681557 308.2232276581878Q284.87586580681557 311.9234173579407 280.777194139397 311.9234173579407L280.777194139397 311.9234173579407L189.78099052316531 311.9234173579407Q185.68231885574667 311.9234173579407 185.68231885574667 308.2232276581878L185.68231885574667 308.2232276581878L185.68231885574667 305.9746508406456Q185.68231885574667 304.32379697460203 186.9062277564342 303.0998880739145Q188.1301366571217 301.87597917322705 189.78099052316531 301.87597917322705ZM301.469793460323 376.2782551359513Q301.469793460323 360.0828094501096 311.3179906612038 351.2592801660834Q321.1377248643943 342.4642138797476 336.9346885825703 342.4642138797476Q352.70318930305575 342.4642138797476 362.3236825224134 351.37313215684503Q371.97263873946144 360.28205043394246 371.97263873946144 376.2782551359513L371.97263873946144 376.2782551359513L371.97263873946144 388.5742701382071Q371.97263873946144 397.369336424543 363.57605442079137 397.369336424543L363.57605442079137 397.369336424543L319.28763001451784 397.369336424543Q317.46599816233174 397.369336424543 316.3274782547155 396.14542752385546Q315.1889583470992 394.9215186231679 315.1889583470992 393.27066475712434L315.1889583470992 393.27066475712434L315.1889583470992 391.6482738887711Q315.1889583470992 389.9974200227275 316.3274782547155 388.77351112203996Q317.46599816233174 387.54960222135253 319.28763001451784 387.54960222135253L319.28763001451784 387.54960222135253L362.3236825224134 387.54960222135253L362.3236825224134 376.47749611978406Q362.3236825224134 364.77920406902683 355.15100710443085 358.5458075748277Q347.9783316864482 352.2839480829381 336.9346885825703 352.2839480829381Q325.8625824810018 352.2839480829381 318.57605507225765 358.5458075748277Q311.3179906612038 364.77920406902683 311.3179906612038 376.47749611978406L311.3179906612038 376.47749611978406L311.3179906612038 411.7146872605082Q311.3179906612038 423.41297931126553 318.57605507225765 429.6463758054647Q325.8625824810018 435.9082352973543 336.82083659180864 435.9082352973543Q347.77909070261535 435.9082352973543 355.06561811135964 429.84561678929754Q362.3236825224134 423.81146127893123 362.3236825224134 412.54011419353003L362.3236825224134 412.54011419353003Q362.3236825224134 410.88926032748634 363.4622024300297 409.6653514267988Q364.60072233764595 408.44144252611136 366.2231132059992 408.44144252611136L366.2231132059992 408.44144252611136L367.8739670720428 408.44144252611136Q369.7240619219192 408.44144252611136 370.8341188318451 409.6653514267988Q371.97263873946144 410.88926032748634 371.97263873946144 412.54011419353003L371.97263873946144 412.54011419353003Q371.7733977556286 428.3086149140155 362.1244415385805 437.01829220728007Q352.503948319223 445.72796950054465 336.9346885825703 445.72796950054465Q321.3369658482271 445.72796950054465 311.403379654275 436.8190512234472Q301.469793460323 427.9101329463498 301.469793460323 411.91392824434104L301.469793460323 411.91392824434104L301.469793460323 376.2782551359513ZM459.467893639773 342.8626958474133L459.467893639773 342.8626958474133L461.71647045731515 342.8626958474133Q463.9935102725477 342.8626958474133 465.0181781894024 345.02588367188423Q466.042846106257 347.1606084986647 465.0181781894024 349.2099443323741L465.0181781894024 349.2099443323741Q460.4925615566277 356.1833787665238 451.1851613118646 370.5287296024891Q441.8492980694109 384.87408043845426 437.5513854181595 391.84751487260394L437.5513854181595 391.84751487260394L437.5513854181595 391.6482738887711Q436.32747651747195 393.4699057409572 436.0997725359488 393.6976097224805L436.0997725359488 393.6976097224805L437.35214443432665 395.74694555618976L437.35214443432665 395.51924157466647L466.4413280739227 438.98223904791826Q467.0675140231117 440.00690696477284 467.0675140231117 441.03157488162753L467.0675140231117 441.03157488162753Q467.0675140231117 445.32948753287894 462.96884235569314 445.32948753287894L462.96884235569314 445.32948753287894L460.91950652198375 445.32948753287894Q459.0694116721073 445.32948753287894 457.41855780606375 443.67863366683537L457.41855780606375 443.67863366683537L430.37871000017685 402.49267600881626Q425.85309336740215 409.46611044296594 416.7449341064719 423.09988633667103Q407.6367748455416 436.733662230376 403.1111582127668 443.67863366683537L403.1111582127668 443.67863366683537Q401.48876734441365 445.32948753287894 399.6386724945372 445.32948753287894L399.6386724945372 445.32948753287894L397.5893366608278 445.32948753287894Q394.91381487792955 445.32948753287894 394.20223993566947 443.792485657597Q393.49066499340927 442.25548378231497 393.49066499340927 441.2308158654604Q393.49066499340927 440.2061479486057 394.0883879449078 438.98223904791826L394.0883879449078 438.98223904791826L423.2060345821943 395.3200005908336L423.2060345821943 395.51924157466647L424.42994348288175 393.6976097224805Q423.40527556602706 392.24599684026964 423.00679359836136 391.6482738887711L423.00679359836136 391.6482738887711L395.54000082711855 349.2099443323741Q394.51533291026385 347.1606084986647 395.54000082711855 345.02588367188423Q396.56466874397324 342.8626958474133 398.8132455615154 342.8626958474133L398.8132455615154 342.8626958474133L400.86258139522465 342.8626958474133Q402.7126762451011 342.8626958474133 404.33506711345433 344.5135497134569L404.33506711345433 344.5135497134569L430.37871000017685 384.6748394546214L456.1946489053762 344.5135497134569Q457.8455027714198 342.8626958474133 459.467893639773 342.8626958474133ZM501.2800372469811 295.7279716720991L501.2800372469811 295.7279716720991L502.9308911130247 295.7279716720991Q506.8018587989201 295.7279716720991 506.8018587989201 299.6274023556848L506.8018587989201 299.6274023556848L506.2041358474215 413.76402309421746Q506.4033768312545 424.20994324659694 512.039050373955 429.9594687800592Q517.6747239166556 435.70899431352143 526.8967351683475 435.70899431352143L526.8967351683475 435.70899431352143L532.0200747526209 435.70899431352143Q533.6709286186644 435.70899431352143 534.7809855285903 436.93290321420886Q535.9195054362066 438.1568121148964 535.9195054362066 439.5799619994167L535.9195054362066 439.5799619994167L535.9195054362066 441.2308158654604Q535.9195054362066 445.32948753287894 526.6974941845148 445.32948753287894L526.6974941845148 445.32948753287894Q513.1775702815713 445.32948753287894 504.9802269467341 437.01829220728007Q496.78288361189675 428.73555987937164 496.5551796303736 413.9632640780503L496.5551796303736 413.9632640780503L497.18136557956245 299.6274023556848Q497.57984754722816 295.7279716720991 501.2800372469811 295.7279716720991ZM485.51153652649555 342.8626958474133L485.51153652649555 342.8626958474133L490.4071721292456 342.8626958474133Q492.25726697912205 342.8626958474133 493.3957868867384 344.08660474810074Q494.5058437966642 345.3105136487883 494.5058437966642 346.96136751483186L494.5058437966642 346.96136751483186L494.5058437966642 348.1852764155194Q494.5058437966642 349.8361302815631 493.3957868867384 351.06003918225053Q492.25726697912205 352.2839480829381 490.4071721292456 352.2839480829381L490.4071721292456 352.2839480829381L485.51153652649555 352.2839480829381Q483.6614416766191 352.2839480829381 482.5229217690028 351.06003918225053Q481.412864859077 349.8361302815631 481.412864859077 348.1852764155194L481.412864859077 348.1852764155194L481.412864859077 346.96136751483186Q481.412864859077 345.3105136487883 482.5229217690028 344.08660474810074Q483.6614416766191 342.8626958474133 485.51153652649555 342.8626958474133ZM512.949866300048 342.8626958474133L512.949866300048 342.8626958474133L528.120644069035 342.8626958474133Q529.7714979350786 342.8626958474133 530.8815548450045 344.08660474810074Q532.0200747526209 345.3105136487883 532.0200747526209 346.96136751483186L532.0200747526209 346.96136751483186L532.0200747526209 348.1852764155194Q532.0200747526209 349.8361302815631 530.8815548450045 351.06003918225053Q529.7714979350786 352.2839480829381 528.120644069035 352.2839480829381L528.120644069035 352.2839480829381L512.949866300048 352.2839480829381Q511.3274754316949 352.2839480829381 510.10356653100735 351.06003918225053Q508.85119463262936 349.8361302815631 508.85119463262936 348.1852764155194L508.85119463262936 348.1852764155194L508.85119463262936 346.96136751483186Q508.85119463262936 345.3105136487883 510.10356653100735 344.08660474810074Q511.3274754316949 342.8626958474133 512.949866300048 342.8626958474133Z " fill="#ffffff" transform="matrix(0.6874208623977824,0,0,0.6874208623977824,-2.6418999858653933,45.1538387056181)"/><path d="M610.999638478081 439.8233517991397L657.8107662762867 307.56559290778716Q659.6559593065374 302.0584014021159 665.6741273436627 302.0584014021159Q671.7206829658687 302.0584014021159 673.7645890916848 307.76430600335266L673.7645890916848 307.76430600335266L720.7744299854561 439.8233517991397Q720.9731430810215 440.41949108583606 720.9731430810215 441.24273105317866L720.9731430810215 441.24273105317866Q720.9731430810215 445.33054330481093 716.8853308293893 445.33054330481093L716.8853308293893 445.33054330481093L714.4439985124421 445.33054330481093Q711.7755655148488 445.33054330481093 710.5548993563754 442.66211030721763L710.5548993563754 442.66211030721763L665.9863907795512 315.7412174110517L621.2191691071617 442.66211030721763Q619.9985029486882 445.33054330481093 617.3584575361757 445.33054330481093L617.3584575361757 445.33054330481093L614.8887376341478 445.33054330481093Q610.8009253825156 445.33054330481093 610.8009253825156 441.24273105317866L610.8009253825156 441.24273105317866Q610.8009253825156 440.41949108583606 610.999638478081 439.8233517991397L610.999638478081 439.8233517991397ZM648.2157625189832 382.36687959564165L648.2157625189832 382.36687959564165L683.5583059445538 382.36687959564165Q685.204785879239 382.36687959564165 686.4254520377126 383.5023829988728Q687.6461181961862 384.63788640210396 687.6461181961862 386.4546918472739L687.6461181961862 386.4546918472739L687.6461181961862 388.2998848775245Q687.6461181961862 390.1450779077752 686.4254520377126 391.2805813110065Q685.204785879239 392.3876971291569 683.5583059445538 392.3876971291569L683.5583059445538 392.3876971291569L648.2157625189832 392.3876971291569Q644.3266633629163 392.3876971291569 644.3266633629163 388.2998848775245L644.3266633629163 388.2998848775245L644.3266633629163 386.4546918472739Q644.3266633629163 382.36687959564165 648.2157625189832 382.36687959564165ZM778.4012276994387 342.73781082287314L778.4012276994387 342.73781082287314Q793.7305236430599 342.73781082287314 801.9061481463244 350.79988498581463Q810.081772649589 358.861959148756 810.081772649589 374.41835577302334L810.081772649589 374.41835577302334L810.081772649589 441.24273105317866Q810.081772649589 445.33054330481093 806.1926734935222 445.33054330481093L806.1926734935222 445.33054330481093L804.5745811439177 445.33054330481093Q800.4867688922853 445.33054330481093 800.4867688922853 441.24273105317866L800.4867688922853 441.24273105317866L800.4867688922853 376.6609749944049Q800.4867688922853 352.3328145801768 778.2025146038733 352.3328145801768L778.2025146038733 352.3328145801768Q766.5636047207537 352.3328145801768 758.3879802174891 361.5303921463493L758.3879802174891 361.5303921463493Q756.1169734110268 363.3755851766 754.4988810614224 363.3755851766L754.4988810614224 363.3755851766Q750.808495000921 363.3755851766 750.6097819053554 359.2877729249677L750.6097819053554 359.2877729249677Q750.6097819053554 357.6412929902825 751.4330218726981 356.02320064067806L751.4330218726981 356.02320064067806Q755.7195472198958 350.0901953587951 762.8732186602523 346.3998092982938Q770.0268901006087 342.73781082287314 778.4012276994387 342.73781082287314ZM743.8535366561299 343.3339501095695L743.8535366561299 343.3339501095695L745.5000165908151 343.3339501095695Q747.1464965255003 343.3339501095695 748.3671626839738 344.4694535128008Q749.5878288424475 345.5765693309512 749.5878288424475 347.4217623612018L749.5878288424475 347.4217623612018L749.5878288424475 441.24273105317866Q749.5878288424475 443.08792408342936 748.3671626839738 444.1950399015798Q747.1464965255003 445.33054330481093 745.5000165908151 445.33054330481093L745.5000165908151 445.33054330481093L743.8535366561299 445.33054330481093Q742.2354443065254 445.33054330481093 741.014778148052 444.1950399015798Q739.7657244044975 443.08792408342936 739.7657244044975 441.24273105317866L739.7657244044975 441.24273105317866L739.7657244044975 347.4217623612018Q739.7657244044975 345.5765693309512 741.014778148052 344.4694535128008Q742.2354443065254 343.3339501095695 743.8535366561299 343.3339501095695ZM840.5416514412656 376.4622618988394Q840.5416514412656 360.3097259878758 850.3637558792153 351.50957461283406Q860.1574727320843 342.73781082287314 875.912582451917 342.73781082287314Q891.639304586669 342.73781082287314 901.2343083439724 351.62312495315723Q910.8576996863568 360.5084390834413 910.8576996863568 376.4622618988394L910.8576996863568 376.4622618988394L910.8576996863568 421.4281966667944Q910.8576996863568 429.3767204894127 912.1919161851534 432.3574169228947Q913.4977450988694 435.3097257712957 917.3868442549361 436.3316788342038L917.3868442549361 436.3316788342038L919.6294634763177 436.956205705981Q922.695322665042 437.5523449926774 922.695322665042 439.59625111849346L922.695322665042 439.59625111849346L922.695322665042 441.8672579249559Q922.695322665042 445.33054330481093 918.6075104134096 445.33054330481093L918.6075104134096 445.33054330481093Q908.6150804649752 445.33054330481093 904.9246944044738 439.39753802292796Q901.2343083439724 433.4645327410451 901.2343083439724 421.2010959861482L901.2343083439724 421.2010959861482L901.2343083439724 376.4622618988394Q901.2343083439724 364.79496443063897 894.080636903616 358.5780832979483Q886.9269654632595 352.3328145801768 875.912582451917 352.3328145801768Q864.8698118554936 352.3328145801768 857.5174273195718 358.5780832979483Q850.136655198569 364.79496443063897 850.136655198569 376.4622618988394L850.136655198569 376.4622618988394L850.136655198569 411.4073791332793Q850.136655198569 423.4721027926106 856.1832108207751 429.60382117005906Q862.2013788579003 435.7355395475074 873.5564128902123 435.7355395475074Q884.8830593374433 435.7355395475074 892.2638314584461 426.5379619813348L892.2638314584461 426.5379619813348Q893.683210712485 424.6927689510842 896.2380933697551 424.6927689510842Q898.7929760270255 424.6927689510842 899.8149290899336 427.75862813980837L899.8149290899336 427.75862813980837Q900.4394559617107 430.19996045675543 899.1904022181562 432.045153487006L899.1904022181562 432.045153487006Q890.4186384281953 445.33054330481093 873.9538390813433 445.33054330481093Q857.5174273195718 445.33054330481093 849.0295393804187 436.5303919297693Q840.5416514412656 427.75862813980837 840.5416514412656 411.60609222884466L840.5416514412656 411.60609222884466L840.5416514412656 376.4622618988394ZM947.02348307927 296.12539612023295L947.02348307927 296.12539612023295L948.6699630139552 296.12539612023295Q952.5590621700222 296.12539612023295 952.5590621700222 300.0144952762997L952.5590621700222 300.0144952762997L952.5590621700222 413.84871145022623Q952.5590621700222 435.7355395475074 971.1529303979329 435.7355395475074L971.1529303979329 435.7355395475074L974.4175026822226 435.7355395475074Q976.0639826169078 435.7355395475074 977.1710984350581 436.956205705981Q978.3066018382893 438.1768718644545 978.3066018382893 439.59625111849346L978.3066018382893 439.59625111849346L978.3066018382893 441.24273105317866Q978.3066018382893 445.33054330481093 970.9542173023673 445.33054330481093L970.9542173023673 445.33054330481093Q957.0443006127854 445.33054330481093 949.8906291724289 437.3536318971119Q942.7369577320723 429.3767204894127 942.9356708276379 414.0474245457917L942.9356708276379 414.0474245457917L942.9356708276379 300.0144952762997Q942.9356708276379 296.12539612023295 947.02348307927 296.12539612023295ZM1007.3187137908461 342.93652391843864L1007.3187137908461 342.93652391843864L1010.8103867557819 342.93652391843864Q1013.2517190727291 342.93652391843864 1014.0749590400716 343.95847698134673Q1014.8981990074143 344.98043004425483 1014.8981990074143 347.0243361700709L1014.8981990074143 347.0243361700709L1014.8981990074143 441.24273105317866Q1014.8981990074143 443.08792408342936 1013.6491452638601 444.1950399015798Q1012.4284791053864 445.33054330481093 1010.8103867557819 445.33054330481093L1010.8103867557819 445.33054330481093L1007.3187137908461 445.33054330481093Q1005.7006214412417 445.33054330481093 1004.4515676976874 444.1950399015798Q1003.2309015392137 443.08792408342936 1003.2309015392137 441.24273105317866L1003.2309015392137 441.24273105317866L1003.2309015392137 347.0243361700709Q1003.2309015392137 344.3559031724776 1004.366404942445 343.6462135454582Q1005.4735207605955 342.93652391843864 1007.3187137908461 342.93652391843864ZM999.341802383147 297.4596126190296Q1001.3857085089631 295.727969929102 1008.7664806299659 295.727969929102Q1016.1188651658878 295.727969929102 1018.3614843872693 297.65832571459504Q1020.6041036086509 299.58868150008806 1020.6041036086509 305.72039987753647L1020.6041036086509 305.72039987753647L1020.6041036086509 308.38883287512976Q1020.6041036086509 315.34379121992083 1018.3614843872693 317.18898425017153Q1016.1188651658878 319.0057896953414 1008.7664806299659 319.0057896953414Q1001.3857085089631 319.0057896953414 999.341802383147 317.18898425017153Q997.297896257331 315.34379121992083 997.297896257331 308.38883287512976L997.297896257331 308.38883287512976L997.297896257331 305.72039987753647Q997.297896257331 299.1912553089571 999.341802383147 297.4596126190296ZM1013.4504321682945 306.34492674931363Q1013.4504321682945 304.3010206234975 1012.5420294457095 303.591330996478Q1011.6052391380439 302.8816413694585 1008.8516433852081 302.8816413694585Q1006.0980476323726 302.8816413694585 1005.2748076650299 303.4777806561549Q1004.4515676976874 304.102307527932 1004.4515676976874 306.34492674931363L1004.4515676976874 306.34492674931363L1004.4515676976874 308.38883287512976Q1004.4515676976874 310.63145209651134 1005.2748076650299 311.25597896828856Q1006.0980476323726 311.85211825498493 1008.9651937255313 311.85211825498493Q1011.83233981869 311.85211825498493 1012.627192200952 311.25597896828856Q1013.4504321682945 310.63145209651134 1013.4504321682945 308.38883287512976L1013.4504321682945 308.38883287512976L1013.4504321682945 306.34492674931363ZM1045.5567908946564 343.13523701400413L1045.5567908946564 343.13523701400413L1099.720303228784 343.13523701400413Q1107.8959277320487 343.13523701400413 1107.8959277320487 350.2889084543606L1107.8959277320487 350.2889084543606Q1107.8959277320487 353.35476764308476 1104.4042547671124 358.06710676649425L1104.4042547671124 358.06710676649425L1052.9091754305782 435.7355395475074L1105.0287816388895 435.7355395475074Q1108.9178807949565 435.7355395475074 1108.9178807949565 439.59625111849346L1108.9178807949565 439.59625111849346L1108.9178807949565 441.24273105317866Q1108.9178807949565 445.33054330481093 1105.0287816388895 445.33054330481093L1105.0287816388895 445.33054330481093L1049.0200762745117 445.33054330481093Q1045.5567908946564 445.33054330481093 1043.5128847688402 443.28663717899485Q1041.468978643024 441.24273105317866 1041.468978643024 438.1768718644545Q1041.468978643024 435.1110126757303 1044.9322640228793 430.19996045675543L1044.9322640228793 430.19996045675543L1095.8312040727174 352.73024077130765L1045.5567908946564 352.73024077130765Q1041.6676917385894 352.73024077130765 1041.6676917385894 348.8695292003216L1041.6676917385894 348.8695292003216L1041.6676917385894 347.2230492656364Q1041.6676917385894 343.13523701400413 1045.5567908946564 343.13523701400413ZM1137.9299927475136 376.4622618988394Q1137.9299927475136 360.3097259878758 1147.7520971854633 351.50957461283406Q1157.545814038332 342.73781082287314 1173.300923758165 342.73781082287314Q1189.027645892917 342.73781082287314 1198.6226496502204 351.62312495315723Q1208.2460409926048 360.5084390834413 1208.2460409926048 376.4622618988394L1208.2460409926048 376.4622618988394L1208.2460409926048 388.72569865373623Q1208.2460409926048 397.49746244369715 1199.8717033937746 397.49746244369715L1199.8717033937746 397.49746244369715L1155.7006210080813 397.49746244369715Q1153.8838155629114 397.49746244369715 1152.7483121596806 396.27679628522367Q1151.6128087564493 395.0561301267502 1151.6128087564493 393.4096501920649L1151.6128087564493 393.4096501920649L1151.6128087564493 391.7915578424605Q1151.6128087564493 390.1450779077752 1152.7483121596806 388.9244117493017Q1153.8838155629114 387.70374559082825 1155.7006210080813 387.70374559082825L1155.7006210080813 387.70374559082825L1198.6226496502204 387.70374559082825L1198.6226496502204 376.6609749944049Q1198.6226496502204 364.99367752620446 1191.468978209864 358.7767963935137Q1184.3153067695075 352.53152767574215 1173.300923758165 352.53152767574215Q1162.2581531617416 352.53152767574215 1154.9909313810622 358.7767963935137Q1147.7520971854633 364.99367752620446 1147.7520971854633 376.6609749944049L1147.7520971854633 376.6609749944049L1147.7520971854633 411.80480532441015Q1147.7520971854633 423.4721027926106 1154.9909313810622 429.6889839253014Q1162.2581531617416 435.9342526430729 1173.1873734178416 435.9342526430729Q1184.1165936739417 435.9342526430729 1191.3838154546215 429.88769702086677Q1198.6226496502204 423.8695289837415 1198.6226496502204 412.62804529175276L1198.6226496502204 412.62804529175276Q1198.6226496502204 410.98156535706755 1199.7581530534517 409.76089919859396Q1200.8936564566825 408.5402330401205 1202.511748806287 408.5402330401205L1202.511748806287 408.5402330401205L1204.1582287409724 408.5402330401205Q1206.0034217712232 408.5402330401205 1207.1105375893735 409.76089919859396Q1208.2460409926048 410.98156535706755 1208.2460409926048 412.62804529175276L1208.2460409926048 412.62804529175276Q1208.047327897039 428.35476742650474 1198.423936554655 437.0413684612233Q1188.8289327973512 445.7279694959419 1173.300923758165 445.7279694959419Q1157.7445271338975 445.7279694959419 1147.8372599407057 436.84265536565783Q1137.9299927475136 427.95734123537375 1137.9299927475136 412.00351841997565L1137.9299927475136 412.00351841997565L1137.9299927475136 376.4622618988394ZM1272.8277970513786 342.73781082287314L1272.8277970513786 342.73781082287314Q1276.7168962074452 342.73781082287314 1276.7168962074452 346.8256230745054L1276.7168962074452 346.8256230745054L1276.7168962074452 348.2450023285444Q1276.7168962074452 349.8914822632297 1275.5813928042144 351.1121484217032Q1274.4742769860636 352.3328145801768 1272.8277970513786 352.3328145801768L1272.8277970513786 352.3328145801768Q1261.1888871682586 352.3328145801768 1254.233928823468 358.26581986205963Q1247.278970478677 364.1988251439426 1247.278970478677 376.4622618988394L1247.278970478677 376.4622618988394L1247.278970478677 441.24273105317866Q1247.278970478677 443.08792408342936 1246.0583043202032 444.1950399015798Q1244.83763816173 445.33054330481093 1243.1911582270445 445.33054330481093L1243.1911582270445 445.33054330481093L1241.7717789730054 445.33054330481093Q1240.1252990383205 445.33054330481093 1238.9046328798468 444.1950399015798Q1237.683966721373 443.08792408342936 1237.683966721373 441.24273105317866L1237.683966721373 441.24273105317866L1237.683966721373 376.4622618988394Q1237.683966721373 359.6851991160986 1247.0802573831115 351.1973111769455Q1256.4765480448496 342.73781082287314 1272.8277970513786 342.73781082287314Z " fill="#212529" transform="matrix(0.6874208623977824,0,0,0.6874208623977824,-2.6418999858653933,45.1538387056181)"/></g></svg>